<?xml version="1.0" encoding="UTF-8" standalone="no"?>
<!DOCTYPE svg PUBLIC "-//W3C//DTD SVG 1.1//EN" "http://www.w3.org/Graphics/SVG/1.1/DTD/svg11.dtd">
<svg width="100%" height="100%" viewBox="0 0 600 600" version="1.1" xmlns="http://www.w3.org/2000/svg" xmlns:xlink="http://www.w3.org/1999/xlink" xml:space="preserve" xmlns:serif="http://www.serif.com/" style="fill-rule:evenodd;clip-rule:evenodd;stroke-linecap:round;stroke-linejoin:round;stroke-miterlimit:1.5;">
    <path d="M199.576,-0.498C199.576,56.999 195.94,114.811 187.236,171.762C181.551,208.966 174.001,246.002 172.322,283.72C170.438,326.035 174.661,367.513 177.067,409.766C179.576,453.836 177.294,498.316 177.294,542.41C177.294,556.889 176.94,571.545 176.94,585.927C176.94,590.672 176.587,595.607 176.587,600.441C176.587,602.141 176.886,607.397 176.886,606.93" style="fill:none;stroke:white;stroke-width:1px;"/>
    <path d="M405.05,1.069C405.05,70.713 408.719,141.293 405.097,210.811C403.525,240.985 397.599,270.78 395.967,300.928C391.537,382.804 395.412,465.073 390.265,546.805C389.614,557.142 392.995,567.271 392.172,577.126C391.202,588.731 387.994,601.345 387.994,612.672" style="fill:none;stroke:white;stroke-width:1px;"/>
    <path d="M-4.846,414.616C75.175,414.616 155.471,412.428 235.448,414.616C291.936,416.162 348,422.641 404.541,422.641C431.876,422.641 458.78,419.206 486.153,419.206C505.122,419.206 523.656,423.068 542.746,421.279C558.389,419.813 572.604,421.514 588.083,421.514C593.064,421.514 599.426,422.423 603.77,420.225C605.642,419.277 612.163,420.225 610.065,420.225" style="fill:none;stroke:white;stroke-width:1px;"/>
    <path d="M-8.053,162.304C53.712,162.304 116.588,169.516 178.244,164.763C212.581,162.116 248.574,160.112 283.031,162.573C308.305,164.378 331.312,179.78 356.853,181.481C376.478,182.788 397.162,185.031 416.769,182.39C435.832,179.822 452.381,175.593 471.513,178.457C506.728,183.729 544.684,180.1 580.322,180.1L607.4,180.1C608.074,180.1 610.747,180.374 610.747,179.797" style="fill:none;stroke:white;stroke-width:1px;"/>
</svg>
