<?xml version="1.0" encoding="UTF-8" standalone="no"?>
<!DOCTYPE svg PUBLIC "-//W3C//DTD SVG 1.1//EN" "http://www.w3.org/Graphics/SVG/1.1/DTD/svg11.dtd">
<svg width="100%" height="100%" viewBox="0 0 600 800" version="1.1" xmlns="http://www.w3.org/2000/svg" xmlns:xlink="http://www.w3.org/1999/xlink" xml:space="preserve" xmlns:serif="http://www.serif.com/" style="fill-rule:evenodd;clip-rule:evenodd;stroke-linecap:round;stroke-linejoin:round;stroke-miterlimit:1.5;">
    <g id="Layer2" transform="matrix(1,0,0,1,-100,0)">
        <g transform="matrix(1,0,0,1.3745,0,2.96396)">
            <path d="M264.164,-7.914C264.164,25.042 263.39,57.624 261.038,90.512C259.048,118.329 254.078,146.006 253.594,173.953C252.06,262.492 254.389,350.704 249.304,438.956C247.595,468.635 251.752,498.831 249.304,528.453C247.148,554.554 241.795,581.061 241.795,607.119" style="fill:none;stroke:rgb(235,235,235);stroke-width:0.83px;"/>
        </g>
        <g transform="matrix(1,0,0,1.3745,0,2.96396)">
            <path d="M560.114,-3.814C560.114,64.886 560.823,133.635 559.241,202.302C557.625,272.414 550.227,342.462 547.247,412.436C545.33,457.438 546.635,502.715 546.635,547.79L546.635,593.383C546.635,597.313 546.364,617.062 544.175,611.6" style="fill:none;stroke:rgb(235,235,235);stroke-width:0.83px;"/>
        </g>
        <g transform="matrix(1,0,0,1.3745,0,2.96396)">
            <path d="M-33.753,150.301C33.592,150.301 101.745,147.002 168.925,151.2C275.155,157.838 380.437,176.19 486.842,180.901C537.381,183.138 587.93,177.586 638.421,177.586C687.413,177.586 736.117,180.553 785.027,180.553C796.317,180.553 807.011,180.028 818.155,178.749C818.664,178.69 826.841,178.416 826.841,178.115" style="fill:none;stroke:rgb(235,235,235);stroke-width:0.83px;"/>
        </g>
        <g transform="matrix(1,0,0,1.3745,0,2.96396)">
            <path d="M-36.626,408.708C26.628,408.708 90.027,410.107 153.254,408.708C215.94,407.321 278.942,399.106 341.776,403.148C373.892,405.213 405.162,414.274 436.866,419.137C474.176,424.86 512.349,426.875 550.058,426.875C624.838,426.875 700.446,429.866 775.04,425.335C795.314,424.104 814.336,422.966 834.039,418.463C836.393,417.926 850.875,414.636 852.318,416.08C853.391,417.153 842.769,421.672 842.016,422.046C840.497,422.801 838.873,423.325 837.216,423.325" style="fill:none;stroke:rgb(235,235,235);stroke-width:0.83px;"/>
        </g>
    </g>
</svg>
