<?xml version="1.0" encoding="UTF-8" standalone="no"?>
<!DOCTYPE svg PUBLIC "-//W3C//DTD SVG 1.1//EN" "http://www.w3.org/Graphics/SVG/1.1/DTD/svg11.dtd">
<svg width="100%" height="100%" viewBox="0 0 320 640" version="1.1" xmlns="http://www.w3.org/2000/svg" xmlns:xlink="http://www.w3.org/1999/xlink" xml:space="preserve" xmlns:serif="http://www.serif.com/" style="fill-rule:evenodd;clip-rule:evenodd;stroke-linecap:round;stroke-linejoin:round;stroke-miterlimit:1.5;">
    <g id="fourths" transform="matrix(1,0,0,1,-90,0)">
        <g transform="matrix(1,0,0,1.64528,30,-6.20976)">
            <path d="M138.347,-5.874C138.347,41.496 135.303,88.515 132.923,135.767C129.84,197.003 134.898,258.494 132.341,319.745C131.132,348.686 125.876,376.776 125.876,405.666" style="fill:none;stroke:white;stroke-width:0.73px;"/>
        </g>
        <g transform="matrix(1,0,0,1.61605,10,2.73457)">
            <path d="M332.61,-4.439C332.61,13.964 330.576,32.128 330.14,50.55C329.224,89.281 330.14,128.148 330.14,166.892C330.14,194.205 330.822,221.798 328.508,248.963C326.844,268.497 330.61,288.604 328.508,308.09C324.934,341.22 324.543,374.279 324.543,407.469" style="fill:none;stroke:white;stroke-width:0.74px;"/>
        </g>
        <g transform="matrix(1,0,0,1.61605,-73,2.73457)">
            <path d="M332.61,-4.439C332.61,13.964 330.576,32.128 330.14,50.55C329.224,89.281 330.14,128.148 330.14,166.892C330.14,194.205 330.822,221.798 328.508,248.963C326.844,268.497 330.61,288.604 328.508,308.09C324.934,341.22 324.543,374.279 324.543,407.469" style="fill:none;stroke:white;stroke-width:0.74px;"/>
        </g>
        <g transform="matrix(1.25978,0,0,1,-65.8427,220)">
            <path d="M-16.003,286.523L195.625,286.523C237.743,286.523 281.21,283.097 322.766,291.753C337.699,294.864 352.198,298.212 366.759,302.649C374.636,305.049 386.87,302.969 394.831,302.969C423.225,302.969 450.493,297.275 479.115,297.275C487.979,297.275 499.38,295.91 508.07,297.949C512.571,299.006 517.635,300.083 522.277,300.083C522.658,300.083 525.722,300.327 525.722,299.88" style="fill:none;stroke:white;stroke-width:0.88px;"/>
        </g>
        <g transform="matrix(1.25679,0,0,1,-65.5414,60)">
            <path d="M-17.363,75.831C37.44,75.831 92.679,73.488 147.405,75.831C164.522,76.564 181.63,78.05 198.767,78.694C261.467,81.05 327.002,81.919 387.839,98.891C393.531,100.479 401.689,97.983 407.338,97.331C415.79,96.355 424.388,95.464 432.87,94.846C464.074,92.572 496.192,92.227 526.736,92.227" style="fill:none;stroke:white;stroke-width:0.88px;"/>
        </g>
        <g transform="matrix(1.25679,0,0,1,-65.5414,240)">
            <path d="M-17.363,75.831C37.44,75.831 92.679,73.488 147.405,75.831C164.522,76.564 181.63,78.05 198.767,78.694C261.467,81.05 327.002,81.919 387.839,98.891C393.531,100.479 401.689,97.983 407.338,97.331C415.79,96.355 424.388,95.464 432.87,94.846C464.074,92.572 496.192,92.227 526.736,92.227" style="fill:none;stroke:white;stroke-width:0.88px;"/>
        </g>
    </g>
</svg>
