<?xml version="1.0" encoding="UTF-8" standalone="no"?>
<!DOCTYPE svg PUBLIC "-//W3C//DTD SVG 1.1//EN" "http://www.w3.org/Graphics/SVG/1.1/DTD/svg11.dtd">
<svg width="100%" height="100%" viewBox="0 0 400 600" version="1.1" xmlns="http://www.w3.org/2000/svg" xmlns:xlink="http://www.w3.org/1999/xlink" xml:space="preserve" xmlns:serif="http://www.serif.com/" style="fill-rule:evenodd;clip-rule:evenodd;stroke-linecap:round;stroke-linejoin:round;stroke-miterlimit:1.5;">
    <g id="golden" transform="matrix(1,0,0,1,1,0)">
        <path d="M400,0L200,300" style="fill:none;stroke:rgb(235,235,235);stroke-width:1px;"/>
        <g transform="matrix(6.12323e-17,1,-0.666667,4.08216e-17,200,-100)">
            <path d="M400,0L200,300" style="fill:none;stroke:rgb(235,235,235);stroke-width:1.18px;"/>
        </g>
        <g transform="matrix(7.32843e-17,1.19682,-0.797882,4.88562e-17,400,121.271)">
            <path d="M400,0L200,300" style="fill:none;stroke:rgb(235,235,235);stroke-width:0.98px;"/>
        </g>
        <g transform="matrix(6.12323e-17,1,-0.666667,4.08216e-17,200,-100)">
            <path d="M200,300L400,300" style="fill:none;stroke:rgb(235,235,235);stroke-width:1.18px;"/>
        </g>
        <g transform="matrix(7.32843e-17,1.19682,-0.797882,4.88562e-17,400,121.271)">
            <path d="M200,300L400,300" style="fill:none;stroke:rgb(235,235,235);stroke-width:0.98px;"/>
        </g>
        <path d="M200,300L400,300" style="fill:none;stroke:rgb(235,235,235);stroke-width:1px;"/>
        <g transform="matrix(-1,-1.22465e-16,1.22465e-16,-1,400,600)">
            <path d="M400,0L200,300" style="fill:none;stroke:rgb(235,235,235);stroke-width:1px;"/>
        </g>
        <g transform="matrix(-1,-1.22465e-16,1.22465e-16,-1,400,600)">
            <path d="M200,300L400,300" style="fill:none;stroke:rgb(235,235,235);stroke-width:1px;"/>
        </g>
    </g>
</svg>
