<?xml version="1.0" encoding="UTF-8" standalone="no"?>
<!DOCTYPE svg PUBLIC "-//W3C//DTD SVG 1.1//EN" "http://www.w3.org/Graphics/SVG/1.1/DTD/svg11.dtd">
<svg width="100%" height="100%" viewBox="0 0 400 600" version="1.1" xmlns="http://www.w3.org/2000/svg" xmlns:xlink="http://www.w3.org/1999/xlink" xml:space="preserve" xmlns:serif="http://www.serif.com/" style="fill-rule:evenodd;clip-rule:evenodd;stroke-linecap:round;stroke-linejoin:round;stroke-miterlimit:1.5;">
    <g id="sixths">
        <g transform="matrix(6.12323e-17,-1,1.42571,8.72996e-17,-78.7931,449.185)">
            <path d="M198.506,-40.975L189.185,438.553" style="fill:none;stroke:rgb(235,235,235);stroke-width:0.81px;"/>
        </g>
        <g transform="matrix(6.12323e-17,-1,1.42571,8.72996e-17,-78.7931,738.666)">
            <path d="M198.506,-40.975L189.185,438.553" style="fill:none;stroke:rgb(235,235,235);stroke-width:0.81px;"/>
        </g>
        <g transform="matrix(6.12323e-17,-1,1.42571,8.72996e-17,-88.038,262.705)">
            <path d="M198.506,-40.975L189.185,438.553" style="fill:none;stroke:rgb(235,235,235);stroke-width:0.81px;"/>
        </g>
        <g transform="matrix(6.12323e-17,-1,1.42571,8.72996e-17,-88.038,552.186)">
            <path d="M198.506,-40.975L189.185,438.553" style="fill:none;stroke:rgb(235,235,235);stroke-width:0.81px;"/>
        </g>
        <g transform="matrix(6.12323e-17,-1,1.42571,8.72996e-17,-88.038,352.705)">
            <path d="M198.506,-40.975L189.185,438.553" style="fill:none;stroke:rgb(235,235,235);stroke-width:0.81px;"/>
        </g>
        <g transform="matrix(6.12323e-17,-1,1.42571,8.72996e-17,-88.038,642.186)">
            <path d="M198.506,-40.975L189.185,438.553" style="fill:none;stroke:rgb(235,235,235);stroke-width:0.81px;"/>
        </g>
    </g>
</svg>
